<mxfile host="app.diagrams.net" modified="2023-11-11T06:09:17.435Z" agent="Mozilla/5.0 (Windows NT 10.0; Win64; x64) AppleWebKit/537.36 (KHTML, like Gecko) Chrome/118.0.0.0 Safari/537.36 Edg/118.0.2088.69" etag="KUVIvjtSrOBgJbiMbOVG" version="22.1.0" type="github">
  <diagram name="第 1 页" id="MvIkl5d77OIRCcuYuzUP">
    <mxGraphModel dx="2346" dy="1330" grid="1" gridSize="10" guides="1" tooltips="1" connect="1" arrows="1" fold="1" page="1" pageScale="1" pageWidth="827" pageHeight="1169" math="1" shadow="0">
      <root>
        <mxCell id="0" />
        <mxCell id="1" parent="0" />
        <mxCell id="TIq_UKb5y6C7OWI4CRsz-3" value="" style="rounded=1;whiteSpace=wrap;html=1;" parent="1" vertex="1">
          <mxGeometry x="340" y="950" width="330" height="180" as="geometry" />
        </mxCell>
        <mxCell id="6XgkzS5plgYIXplXgI7b-51" value="" style="shape=image;verticalLabelPosition=bottom;labelBackgroundColor=default;verticalAlign=top;aspect=fixed;imageAspect=0;image=data:image/png,iVBORw0KGgoAAAANSUhEUgAAAEAAAAAoCAYAAABOzvzpAAAAAXNSR0IArs4c6QAAAARnQU1BAACxjwv8YQUAAAAJcEhZcwAAFiUAABYlAUlSJPAAAAZsSURBVGhD7ZgPTFVVHMfZ3dvb23t7uGQGwz9NUxLBFNNSiqioyKWiGJrTsZdLUQorSxDFkWtUCqnYtFTSJBWefwjxHxSQiGmi+AdUpNQEhyiLHLD3xt7u9uny3n1/gPfQkhr5+G5nZ7vnd84953PP73d+53rg5uoFINduq14Acu226gUg1w+hmqktP0LmmkRi3t/CuVb5cQc9VADExiqKstaTHBtF6PB+KAUPPDw8UD21nFKjbNRBDxWA1soc1qamkbpyIa88pkSQFu9WAOwyUZEahsZ9AcDdnXN4xN1cwFHNeh39egH0AugmAGIjVSU/U20bxEjd+UJy9XspOF8vhZwuZKjjwtFD5GTvRJ+bz/HLd3BxJHeWaKDhWgUnC/PQ78om52Ax5TXNcmPX6gYArdy+cIjNyfOYGCidqZ4z2HZbetxcwfbYYHwVgnlwQR1AbE4doqWTTaabpWQkRBLkrbIdR+YieDI0LIb0H69LGF2o5Ro/ZSxn9oSBeAeGMzsmjnfems6zQzQIKm+CZq4kt6pFNnauBwDQxJnvlhEd5meLoubSBqCuikzdCNSOzz0UDHn3IPbpiDSUriXK34thk5azvbCcq3cauVVdRt5aHWO9ZHCaQHTbKjHIvWxqPE7alMFSEqMkYO4OqhwMTDfzSQjWSkAFtEGL2H+zI3a7HgBAC1fLjnHq9DG2xYxCZV2oNoLE5AheeHsjxRVl7Pk4En+ttBihL6+tq7S5gaFyC28OVeIV/gXnOr3UxJWvpuItT0zwepXUckejFo4ljbMAVjxGbF7HryxSnznb0l9QE5JyxqU7dUsMMBQn8KTSMkjbCwfP3MRl2xtNkosUkHu4nFvW1Zt+ZVOkt7RNRxNf1CQ/7KCGLHS+ll3QtnuGLczlD7kJ4y+snKCS27RM21zbybWMpUmMVVnmpJ28gWsuNkG3AGgtTyFEbRnEQzWe5BMuRpHVXLiEURIwpf9iCly5qARp/USNvEjJ1m8Rh61xTbzGNzN8UUjPBeUIPsi/KzfYZTyZzDMyANW4FRx3MaXuAXD2M0KtAKQYsLUtCLqUgaL4kSglW8Wg54iKjibaaZnDayM97YFR8zKplfZzxHTrBLvSv+DrQ5ekaNRZjgCUI+Mp6hRELPpXAJhPAVdqPUNKiNrywtFRfBgfT/z9lKUp6C/e+2A01pWxOzWOyaN9bEFYGfARhT0GQJMe3aMW39ZGbqGLAP03ZKT2ZDarYicxfkIEcam7OXE4yb4DehIAsS6D6VqLrTokhfL7znacycjvxRuIm+hPv4GhvLOplDp5vHYu0KN2QMO3zPS02Ao+OrJtof1vynCFvfFhDFAK9AuJJ/dq+5n3XAAt3zO/v8JiqxhK7P4/5YZ7yURjQ6MljxBvsHfBSLOPC55hrO6cSPRgAKaLpL1sPd4U+M7IcHlGO6rldBpTJn/OWWmLG0oSGSMvTv3Sai44caOeC0A6BksSg+yZo3IYc7NvdEpkHCXeLiIp1J85mW12rZR9Eoxa7u8qyTEeX2FLhP4DAJ/yvA1AFFvr5QYXai2XgGmsWZ6UD/i8yNK8607TVcOvOSx53gefSeupMBsYKFg83JxHmPsOnou+viMBI1c2TuNReWFKv/c40gUALyuAMf8QgGPa6aEJZ11Vlxdf6ZPe4cjioHaXJUHpy9OzEliTsYvcA/vRb9/Ip3FTCOwrSAuIJrPaisdE1bpwNNa+goagmJ1cMmeJIk2/FbFl6VSeCvCjv0Ie2/N1vqyW5iTWc/rUFQfQIrWbp6GV56AYtogjLjJT1wBaa8lPCHaYkJbgxB+ovwcDGk+SHvm47Ze08yLQd8xcMs62z/XE2j3Mf0LZzk7t7UeAnw8aCWRI3DZO1+xl3gA52ErtfYaMZszwIUxIKrbfLJvOkx7hY06p2+wE9TiWFv7h1B07AzBdZ9+yNwj1t/9XtxXpiuobFM4M3RIyzzvb2LKaqzmwSsdzg9quro5jCKgGhTJ/zWGqnf7XEKkrTmPWqEfs/QQFXoHTWLHvMpYuf1K4bLztqi4oBhKenE+N9GFMl7NIjJ5KiF+fDu+V7LQSpIjZLEg/iuMNo0sXeGAZ66ksOci+XZnszCngxMUa7t5rB0kSm2o4d3Q/WTv05JVcoqFjH7GByh/3kLWngDM3mpx+2fvVvwvgf6BeAHLttuoFINduq14Acu2mgr8ApVhnDkmzet8AAAAASUVORK5CYII=;shadow=1;" parent="1" vertex="1">
          <mxGeometry x="363" y="1090" width="23.3" height="14.56" as="geometry" />
        </mxCell>
        <mxCell id="qMClnt8BiEkQ-YxNNmWa-43" value="" style="endArrow=classic;html=1;rounded=0;" parent="1" edge="1">
          <mxGeometry width="50" height="50" relative="1" as="geometry">
            <mxPoint x="360" y="1080" as="sourcePoint" />
            <mxPoint x="480" y="1080" as="targetPoint" />
          </mxGeometry>
        </mxCell>
        <mxCell id="qMClnt8BiEkQ-YxNNmWa-44" value="" style="endArrow=classic;html=1;rounded=0;" parent="1" edge="1">
          <mxGeometry width="50" height="50" relative="1" as="geometry">
            <mxPoint x="360" y="1080" as="sourcePoint" />
            <mxPoint x="360" y="960" as="targetPoint" />
          </mxGeometry>
        </mxCell>
        <mxCell id="qMClnt8BiEkQ-YxNNmWa-45" value="" style="endArrow=classic;html=1;rounded=0;" parent="1" edge="1">
          <mxGeometry width="50" height="50" relative="1" as="geometry">
            <mxPoint x="540" y="1080" as="sourcePoint" />
            <mxPoint x="660" y="1080" as="targetPoint" />
          </mxGeometry>
        </mxCell>
        <mxCell id="qMClnt8BiEkQ-YxNNmWa-46" value="" style="endArrow=classic;html=1;rounded=0;" parent="1" edge="1">
          <mxGeometry width="50" height="50" relative="1" as="geometry">
            <mxPoint x="540" y="1080" as="sourcePoint" />
            <mxPoint x="540" y="960" as="targetPoint" />
          </mxGeometry>
        </mxCell>
        <mxCell id="qMClnt8BiEkQ-YxNNmWa-48" value="" style="endArrow=classic;html=1;rounded=0;" parent="1" edge="1">
          <mxGeometry width="50" height="50" relative="1" as="geometry">
            <mxPoint x="490" y="1020" as="sourcePoint" />
            <mxPoint x="530" y="1020" as="targetPoint" />
          </mxGeometry>
        </mxCell>
        <mxCell id="qMClnt8BiEkQ-YxNNmWa-49" value="" style="curved=1;endArrow=blockThin;html=1;rounded=0;endFill=1;endSize=2;" parent="1" edge="1">
          <mxGeometry width="50" height="50" relative="1" as="geometry">
            <mxPoint x="440" y="1060" as="sourcePoint" />
            <mxPoint x="440" y="990" as="targetPoint" />
            <Array as="points">
              <mxPoint x="420" y="1040" />
              <mxPoint x="420" y="1000" />
            </Array>
          </mxGeometry>
        </mxCell>
        <mxCell id="qMClnt8BiEkQ-YxNNmWa-50" value="&lt;font style=&quot;font-size: 8px;&quot;&gt;$$x_T$$&lt;/font&gt;" style="text;html=1;align=center;verticalAlign=middle;resizable=0;points=[];autosize=1;strokeColor=none;fillColor=none;" parent="1" vertex="1">
          <mxGeometry x="420" y="1048" width="70" height="30" as="geometry" />
        </mxCell>
        <mxCell id="qMClnt8BiEkQ-YxNNmWa-51" value="&lt;font style=&quot;font-size: 8px;&quot;&gt;$$x_0$$&lt;/font&gt;" style="text;html=1;align=center;verticalAlign=middle;resizable=0;points=[];autosize=1;strokeColor=none;fillColor=none;" parent="1" vertex="1">
          <mxGeometry x="410" y="950" width="70" height="30" as="geometry" />
        </mxCell>
        <mxCell id="qMClnt8BiEkQ-YxNNmWa-52" value="" style="endArrow=none;html=1;rounded=0;endFill=0;fillColor=#0050ef;strokeColor=#001DBC;" parent="1" edge="1">
          <mxGeometry width="50" height="50" relative="1" as="geometry">
            <mxPoint x="440" y="1060" as="sourcePoint" />
            <mxPoint x="420" y="1040" as="targetPoint" />
          </mxGeometry>
        </mxCell>
        <mxCell id="qMClnt8BiEkQ-YxNNmWa-53" value="" style="endArrow=none;html=1;rounded=0;endFill=0;fillColor=#0050ef;strokeColor=#001DBC;" parent="1" edge="1">
          <mxGeometry width="50" height="50" relative="1" as="geometry">
            <mxPoint x="420" y="1040" as="sourcePoint" />
            <mxPoint x="410" y="1020" as="targetPoint" />
          </mxGeometry>
        </mxCell>
        <mxCell id="qMClnt8BiEkQ-YxNNmWa-54" value="" style="endArrow=none;html=1;rounded=0;endFill=0;fillColor=#0050ef;strokeColor=#001DBC;" parent="1" edge="1">
          <mxGeometry width="50" height="50" relative="1" as="geometry">
            <mxPoint x="410" y="1020" as="sourcePoint" />
            <mxPoint x="410" y="1000" as="targetPoint" />
          </mxGeometry>
        </mxCell>
        <mxCell id="qMClnt8BiEkQ-YxNNmWa-55" value="" style="endArrow=classicThin;html=1;rounded=0;endFill=1;fillColor=#0050ef;strokeColor=#001DBC;endSize=2;" parent="1" edge="1">
          <mxGeometry width="50" height="50" relative="1" as="geometry">
            <mxPoint x="410" y="1000" as="sourcePoint" />
            <mxPoint x="430" y="980" as="targetPoint" />
          </mxGeometry>
        </mxCell>
        <mxCell id="6XgkzS5plgYIXplXgI7b-1" value="" style="endArrow=none;html=1;rounded=0;endFill=0;fillColor=#fa6800;strokeColor=#C73500;" parent="1" edge="1">
          <mxGeometry width="50" height="50" relative="1" as="geometry">
            <mxPoint x="440" y="1060" as="sourcePoint" />
            <mxPoint x="390" y="1020" as="targetPoint" />
          </mxGeometry>
        </mxCell>
        <mxCell id="6XgkzS5plgYIXplXgI7b-2" value="" style="endArrow=classicThin;html=1;rounded=0;endFill=1;fillColor=#fa6800;strokeColor=#C73500;endSize=2;" parent="1" edge="1">
          <mxGeometry width="50" height="50" relative="1" as="geometry">
            <mxPoint x="390" y="1020" as="sourcePoint" />
            <mxPoint x="410" y="970" as="targetPoint" />
          </mxGeometry>
        </mxCell>
        <mxCell id="6XgkzS5plgYIXplXgI7b-20" value="" style="curved=1;endArrow=blockThin;html=1;rounded=0;endFill=1;endSize=2;dashed=1;" parent="1" edge="1">
          <mxGeometry width="50" height="50" relative="1" as="geometry">
            <mxPoint x="615" y="1060" as="sourcePoint" />
            <mxPoint x="615" y="990" as="targetPoint" />
            <Array as="points">
              <mxPoint x="595" y="1040" />
              <mxPoint x="595" y="1000" />
            </Array>
          </mxGeometry>
        </mxCell>
        <mxCell id="6XgkzS5plgYIXplXgI7b-21" value="&lt;font style=&quot;font-size: 8px;&quot;&gt;$$x_T$$&lt;/font&gt;" style="text;html=1;align=center;verticalAlign=middle;resizable=0;points=[];autosize=1;strokeColor=none;fillColor=none;" parent="1" vertex="1">
          <mxGeometry x="595" y="1048" width="70" height="30" as="geometry" />
        </mxCell>
        <mxCell id="6XgkzS5plgYIXplXgI7b-22" value="&lt;font style=&quot;font-size: 8px;&quot;&gt;$$x_0$$&lt;/font&gt;" style="text;html=1;align=center;verticalAlign=middle;resizable=0;points=[];autosize=1;strokeColor=none;fillColor=none;" parent="1" vertex="1">
          <mxGeometry x="580" y="950" width="70" height="30" as="geometry" />
        </mxCell>
        <mxCell id="6XgkzS5plgYIXplXgI7b-23" value="" style="endArrow=none;html=1;rounded=0;endFill=0;fillColor=#0050ef;strokeColor=#001DBC;dashed=1;" parent="1" edge="1">
          <mxGeometry width="50" height="50" relative="1" as="geometry">
            <mxPoint x="615" y="1060" as="sourcePoint" />
            <mxPoint x="595" y="1040" as="targetPoint" />
          </mxGeometry>
        </mxCell>
        <mxCell id="6XgkzS5plgYIXplXgI7b-24" value="" style="endArrow=none;html=1;rounded=0;endFill=0;fillColor=#0050ef;strokeColor=#001DBC;dashed=1;" parent="1" edge="1">
          <mxGeometry width="50" height="50" relative="1" as="geometry">
            <mxPoint x="595" y="1040" as="sourcePoint" />
            <mxPoint x="585" y="1020" as="targetPoint" />
          </mxGeometry>
        </mxCell>
        <mxCell id="6XgkzS5plgYIXplXgI7b-25" value="" style="endArrow=none;html=1;rounded=0;endFill=0;fillColor=#0050ef;strokeColor=#001DBC;dashed=1;" parent="1" edge="1">
          <mxGeometry width="50" height="50" relative="1" as="geometry">
            <mxPoint x="585" y="1020" as="sourcePoint" />
            <mxPoint x="585" y="1000" as="targetPoint" />
          </mxGeometry>
        </mxCell>
        <mxCell id="6XgkzS5plgYIXplXgI7b-26" value="" style="endArrow=classicThin;html=1;rounded=0;endFill=1;fillColor=#0050ef;strokeColor=#001DBC;endSize=2;dashed=1;" parent="1" edge="1">
          <mxGeometry width="50" height="50" relative="1" as="geometry">
            <mxPoint x="585" y="1000" as="sourcePoint" />
            <mxPoint x="605" y="980" as="targetPoint" />
          </mxGeometry>
        </mxCell>
        <mxCell id="6XgkzS5plgYIXplXgI7b-27" value="" style="endArrow=none;html=1;rounded=0;endFill=0;fillColor=#fa6800;strokeColor=#C73500;dashed=1;" parent="1" edge="1">
          <mxGeometry width="50" height="50" relative="1" as="geometry">
            <mxPoint x="615" y="1060" as="sourcePoint" />
            <mxPoint x="565" y="1020" as="targetPoint" />
          </mxGeometry>
        </mxCell>
        <mxCell id="6XgkzS5plgYIXplXgI7b-28" value="" style="endArrow=classicThin;html=1;rounded=0;endFill=1;fillColor=#fa6800;strokeColor=#C73500;endSize=2;dashed=1;" parent="1" edge="1">
          <mxGeometry width="50" height="50" relative="1" as="geometry">
            <mxPoint x="565" y="1020" as="sourcePoint" />
            <mxPoint x="585" y="970" as="targetPoint" />
          </mxGeometry>
        </mxCell>
        <mxCell id="6XgkzS5plgYIXplXgI7b-29" value="" style="endArrow=none;html=1;rounded=0;endFill=0;fillColor=#008a00;strokeColor=#005700;" parent="1" edge="1">
          <mxGeometry width="50" height="50" relative="1" as="geometry">
            <mxPoint x="615" y="1060" as="sourcePoint" />
            <mxPoint x="570" y="1020" as="targetPoint" />
          </mxGeometry>
        </mxCell>
        <mxCell id="6XgkzS5plgYIXplXgI7b-30" value="" style="endArrow=classicThin;html=1;rounded=0;endFill=1;fillColor=#008a00;strokeColor=#005700;endSize=2;" parent="1" edge="1">
          <mxGeometry width="50" height="50" relative="1" as="geometry">
            <mxPoint x="570" y="1020" as="sourcePoint" />
            <mxPoint x="600" y="970" as="targetPoint" />
          </mxGeometry>
        </mxCell>
        <mxCell id="6XgkzS5plgYIXplXgI7b-33" value="" style="endArrow=none;html=1;rounded=0;" parent="1" edge="1">
          <mxGeometry width="50" height="50" relative="1" as="geometry">
            <mxPoint x="360" y="1090" as="sourcePoint" />
            <mxPoint x="390" y="1090" as="targetPoint" />
          </mxGeometry>
        </mxCell>
        <mxCell id="6XgkzS5plgYIXplXgI7b-36" value="" style="endArrow=none;html=1;rounded=0;fillColor=#0050ef;strokeColor=#001DBC;" parent="1" edge="1">
          <mxGeometry width="50" height="50" relative="1" as="geometry">
            <mxPoint x="410" y="1090" as="sourcePoint" />
            <mxPoint x="440" y="1090" as="targetPoint" />
          </mxGeometry>
        </mxCell>
        <mxCell id="6XgkzS5plgYIXplXgI7b-37" value="" style="endArrow=none;html=1;rounded=0;fillColor=#e51400;strokeColor=#B20000;" parent="1" edge="1">
          <mxGeometry width="50" height="50" relative="1" as="geometry">
            <mxPoint x="460" y="1090" as="sourcePoint" />
            <mxPoint x="490" y="1090" as="targetPoint" />
          </mxGeometry>
        </mxCell>
        <mxCell id="6XgkzS5plgYIXplXgI7b-38" value="" style="endArrow=none;html=1;rounded=0;fillColor=#008a00;strokeColor=#005700;" parent="1" edge="1">
          <mxGeometry width="50" height="50" relative="1" as="geometry">
            <mxPoint x="510" y="1090" as="sourcePoint" />
            <mxPoint x="540" y="1090" as="targetPoint" />
          </mxGeometry>
        </mxCell>
        <mxCell id="6XgkzS5plgYIXplXgI7b-45" value="" style="shape=image;verticalLabelPosition=bottom;labelBackgroundColor=default;verticalAlign=top;aspect=fixed;imageAspect=0;image=data:image/png,iVBORw0KGgoAAAANSUhEUgAAAGMAAAAiCAYAAABLP2dcAAAAAXNSR0IArs4c6QAAAARnQU1BAACxjwv8YQUAAAAJcEhZcwAAFiUAABYlAUlSJPAAAAhPSURBVGhD7Zl9TFRXGsYnN5PJZCYDsQQ1FDEiZVRW/GCpFZEuVsGPqrhSZLTr+lHASim2UllsC1XExSLI2FbclqJSk/pVlY+6oIhVWiiy2i0WRLCgkCIYPuIYyORmkmfPMOfCcLmwA8xN5o95kvMHzJnnnDm/97znPfdKYJfNyA7DhmSHYUOyw7Ah2WHYkOwwbEgEBov6c0mIiohAxHAtMgo7Y+OQkJiM1PRjOJVXhtq2XmoxksTyNqCl4CB2CPmZtah9Z/F9TrzA+JHYmVaEJwZqZ7EMaLqULDhuVMJp/Kan3cYo085gdWh9UI4LKeuhlkkgkRgbA9mUBfjrthi8FxOJzWFrEOTvg5mujpAyEjAyJ3gGaJDwZQkadH0uwhLNuxddzbUo+zYJaz1k1Jc06TSs+vA0btY0o9PIlIzf9rAKBdqt8HFg+vsxjkFIrx7l6vXexgF/BRhuLPI7nANikVP6G5q7x0mCaHCa6r2FvfPldCAFAg/9F0OGYDtwv+QkkjTz4EwWzjghB8/V+DivgSzPCBLNuxc3E+ZCThdINvsDXO+hH5nL8AjHQ1R0fGOTYfbuYnTTjy1RZ2EMZvQHFGnSqYi82Ek/Hb8Gw2DvIW2pkg6mxMqj9STRDCcdqk9FYJ6jKdoYuQfWppYOv/VF82ZRk74Myj5fCZSvpaFa0FiHC9sng2EY0kx9pS7hONFkYa4yNCFnw2Qo5/jAW276vkT+MhJ/siRdWyYejDpkBlu6YEbp0Xg5Fr4quv1l06H5ulY4ikXzJufS0ZUDMIIzUSdo/Bx5b7tB5ReC1e5SkyejxOKUqpF3NJX+bioCVROxLjMN4Q6msSSKRThwe/zpidM4YRjViZJ/+ELZH21hyP5dINpE8x4ljOA0XEjyg4J6yjx3Iu8p7TKsulH8/p+gUO/E5cZcaGwXBlH7Jex4iTtE5fDZe4v8dJ5E8x4tjEzUNmTjjUl0xzHOCDk28lwMzbl401WJRcmV6O0cDQwWz1pqUFFShJLK+2jVmQLJYBBOjdaBQX7o1TgvyOiCyOd/iDL+3hfNe/Qw6tguXImdNeDp+xHKhkQPJxb30oPgOGk9vjLuSgthsI9LkLHNH95/2YKE1Ayk7duFUF8PePn5Ye7mHDyh/cxlJRhA1/nteFFKJ6lcirR7vG+K5j0WGOQM+OUQlnDnESmHt55tJbcIAelKET9XCfU7+egw/m0JjN5qfBHiCpX/Jyh/Rv9HZGi/jr1+KqjWZkGobrAaDP2dFCxW0EnKZuL9Yl59KZr32GCQ3INv3nSFtO97DByDM8CPH9IJrWe2YKrKnyw63Y4WwHheFEvuVDJ4xV0Dv8p+WhCDOau0eCAwR6vBMDz8HK+r6CSZidh6jndbE817jDCIdKXxmMuVqTJvxF3l3TrYWmhXvoBJb2SjkYvk/wvDgOYv10FlvCO99k9U8S+tumLE//0wqgU2lNVgsA+0WK6kk5ROwY7LvCQsmvfYYYCtgXbFBHqjluJFzUk8MksfPWUf4c/KGYgpNLvYWbAznuVHY7oxrTIKqDdk4Idm8z56tDT8DrPs1S+rwej9KQkvc1FGJpnMn6Ro3uOAQaL4yfm34E7PI0YZgJQqrjpox3eR0+EQkIL+fxll0ZnxHxxaykFmIHcLRPSxG3jML2p4shqMtlwNnLj7gPvbyOOjF817PDCIen5E4gLueZMM6ui8voOarT+GEOfJCPu6afDBbgkMIn3DBexa6DTwHIuRwXVxFD7/oWXY320lGB24GOVOD0Mp3KMumioPc4nmPU4Y5PsNx9dhIoXNOIcgq16Hik8WQjXrXVzpot04WQjDKEPHHXyzZzmmK2jVZvQnaS/0SNnQ9SGyCgy24SuEupgeMTAOryLltsCTOtG8xwuDqCMf76gHLpa+u1MQ6emIVw/eGfowcxQwTGLRWnECe16fAQcKXCJ7CW+d+2NIKT1+GGw9Tm6kkcvIMfvdApJtBSSat+UwLkWR2j8oAzVDPu9FVUpA/2MXhpGaHiKan+acLIDxtFCLrEreAWFow6309fCUG3cJKaVDs9HCs+fBqMWR0SyYvhFXEoPh2ncAkmpkxaco529rTqJ5s3igXW4G4whqBY27cXqTIxQL9+FngWA2PDoJDd2BxrPDa9e/IThcWw7C+mH4YX8l34zcTbLDsUxoV5E5XI3z7rv5KwI/xa+8DoNh6Cux309BJ6REcOb9YRbsOR6Xn8H+0JmmaGImYM7GDNz4QyCSOInmrcftA4ug6POVQL4gCRVCVQvZmdrlSlIARCNf8IVVN4rjZvctFKMKROpdAWJEbJ1ZmS3zQtw1fto0wgiF0yuJKBsyjgGP/xVC7iBSeETnD3mXMghG993DWPECd9iQaFy5F7nf30T5j6UounwOp3OyoE2ORdhCN7pQSkxb/Dck5laifQQORonmrauGdrVzf9XCOC7DwZ+7ePlYj6Yre+BvfNMndUd41i+CUa+vTkeQoxQuvPvGgJ7h18/WwYV7NENSp09cMdoG9TXBUDFOWPLxNTSbRxz7ECc0UyH32IRTAldwAoPk3LMJ2LjGH570Zc7QxoCROWDiFA/MmueH4LAoxKcex/myh4KXlwGJ5W1AS2EKtmtCEKDm6vmBxiin4ZVVG7Al6Vt891kEQpZ4w6UvV9M+ZKFmBKzB5sM3MCh4Da04sz0Qu4v4N/E6nEnYhLUBakyg58qAlwJuvisQvjuXvgM3wtBAPd8fvmo3eAVtwwcHjuBoxn7ErPbGzGXvIaeynRcsJg1OU3ZZRWxnOzpoluvpaMS9iusoLLiGyro29Iywy+0wbEh2GDYkOwwbkh2GDckOw4Zkh2EzAv4HDe7/jMUpFlQAAAAASUVORK5CYII=;" parent="1" vertex="1">
          <mxGeometry x="460.88" y="1093.62" width="29.12" height="10" as="geometry" />
        </mxCell>
        <mxCell id="6XgkzS5plgYIXplXgI7b-49" value="" style="shape=image;verticalLabelPosition=bottom;labelBackgroundColor=default;verticalAlign=top;aspect=fixed;imageAspect=0;image=data:image/png,iVBORw0KGgoAAAANSUhEUgAAAIgAAAA0CAYAAABRsnBcAAAAAXNSR0IArs4c6QAAAARnQU1BAACxjwv8YQUAAAAJcEhZcwAAFiUAABYlAUlSJPAAAAt9SURBVHhe7Zt9TBRnHsfJZLLZ7GYhYAQCrASkFQUtihVrLaAIXNV6VlHBF8RawLYH1WMth22lxq5W0SpasbZalVOp0rNeqxXF14q21KI93+q7QCMgUYlslpDNJt97dp3dnd2dHRhax7vm+STzjzs8v2dmPs/v+T3PjF6gUESgglBEoYJQRKGCUEShglBEoYJQRKGCUEShglBEoYJQRKGCUEShglBEoYJQROlCEDNa9uowKiYCARolFAqFx0OpVMMvMBTPRg/B8PhkjJsyFzr9BuyqqsWthyauPTHkjlWA+CgtfFVdxFL7IjD0WQyMfREpk1/HwmUbsfvENbSZuabsmHB9+zyMio1EiK8KSte21IPxzpFH3Lk9o+OsHgk+7v1VKn0QFDkMU9fWooM794+i2xnEePso1mZEQuHlBS/bwWoxIv0tFOlLsGqFHksWF2F+TgbGJwxCiIaxn8f49EPqvJXY83MzOrn2xJAvlhmt579EQUIvMLxYbPBIzC7S46MP34MuLweZUycgMToASoY7h1EhdGQmiivO4yHXEp/OplqU542Ar+1868EieHo5GtzE6i4PcCCvv/M98WKgipmDT081duu+9gRJU0zHySLEKB0dVA7/AD94ULaj6Tz2f7YIU2McN59RBGBoVilONXd9l+SM1bI9g/cwGfTO2g33sf4IN49sRN5oLVjbuWwg4hfsxq8C/TLf3YIpPg5xrX3SJGJ5Xc8epbn+C6QHOrfn5aVG6tpfSe56ckgSxHRxFcaoHR1UJ6/Cpa56134VXxclIYi1/R0Dv9jXsKn2Phm/npEzluFAHvry/iY4Zy/aud/ceHAGK18OBMv1y4vphaTlP8LA/WzHWIX5/RRcm7ZDgf55+0kukEonzn00ChrGB3369ObF9sOsXW3cOU8GSYKYb36C8RrHBXfroVkwt6JmzSREKB0jgA1Lw6cXjNwJ7sgZy3h0IaIVtlhdCEIw/rgEI1SOvrHa2djV5KKgsRq6KFIjRAxAPzVvCvSfhE03JI75tkP4ezRpq18uFs8b4JhmyLSbu89NzT8UiYJs6NlDs9KG0/rR6MVL5b4vFeOE0CROkDOWRZCBEgRBxxkUxym588lBHlTOXpeRbDxiFUQ95n2szAzljXoVhhefhmddXTGjsXwmQlg1Ri6twUHdn1YQgrEW+gRvR0FI0vO4dZcF51A5Y0kWBM3YkuZt75ulFhi77rpz2zZBSL/rji/CUF49xfbNRmVL17WRFdMFrE7xBhswBZtvtaP6Ty0I4d5X2Qi3z/deUETNx0GBkS1nLOmCtGLbNL4gGkwou+1c5/AEuWS8ig0TeCslxhdjS4VldaX9WCEp1hWItNYuxh4KYoah6Spqj3yLf1fV4GJjW7cLW9kFwSNSvPXnFW9sOObtc39qcsaSLEhnHfQvqRztKgZAV+0yafAFIf1u3TcPz9hjkFXZ4EIcE7eQ3IQmVGT1AauOh/6sZakkXZC2S3vxYcZgBIS+gMnZb6Mg/zWkxUciOHwoUieNxfD0MtwUSWbyC4KH+CqbLBVtF+mlREzRSbcNHjljSRWkk6ywknl7L8phi1HjWlS4CIKOWix9Ue3IImwIZv6zUXwld6UUL/uyCJy6BXesJ0oTxHhuPSb2UcA7TocDjbybZ2rC9yWvWrOrOnk1Lovc16cgiAmXV6dAbbtIcmgmb4brIkDOWJIE6byKbTMiHA9JEYFZ5TfdU7arIESF25unIJBXOGtGr8B5j9siBnz/7lAoSXbK/86W9SQIYm7A9owgsGQpnL6tmftHHqZr+HxKCNTxyyC2NfMUBCGZv2KW0y6jKmG5242SM1Z3BTHcOoSPZ8bAx9YeKXxHFlVBcC/OTRDCw4OYT/7N1hfL1JR/wMOuSEslssNZaEh/HQ9QgiAPdyPLn2Q5pjdm7RKOYTisw3Mjij1uQFp4KoIYyHys5RWPyheW4McnJEh3YrkK4vPi69CXrMUnG8tQuqIYhXnZmPHKcITZpxUGKm0C/rblJ9z3NEcICYJOnF+ZBG9eFglI+xy33Now4VrZBPRig5C+tZ43DXVfEHPDJky03j8WwWmbcNXlmq0YqvHOxHdx4n9NkPbK1+DPG9XqpBJcdGlHzljOgggcjAKa3lpERA1DamYhSvfU4HZXBaagIOS6ftuBWVrW3jajegEf/OBa4D7eZ1FELUCV0/aKhAxiOIi3bTu5ZJqJnbMeJxtdLTHhXn0DxPZin4IgZtzdPBka20WSUeQ3Ywfuc7/akDOWawYJmrsbTfea0HD7Oq7fakRrew/M9CAIURbHCgdDae8Ti4icf6GF+9VC6743yIpHg1Erzrm8hJNSpHbgXEky/HjZSqlNxJtlx9EgkjFceQqCdODUe7G8G6TCS/o6t7eRcsaSVKR2F4+CkHFLVidjfXnb737jsf5X7iTzTXw2yR9s8HRsd3v1K0UQQvs5bJreHypeBrVkw5D4XKw/esdtNSeE/IKYrmPdWI1juad4DoXH3Tee5YwltyAwt6Ayu6/T8ntI0QlrzI6fPsRIlQLRBYcEUr9EQSwYLqOiYDS0CoeQloNRaDG6YAd+Edg45CO7IKbrGzDBPnpIsRdXjNMCKssZS3ZBCMbTxYhTOR4aq83Ezsb72J8XCYV3Ekp+EaoqeyCIlQ7cPrwaWc+TzGT7W+tBCthUPU7e81Rpyy5IO2oWD3ekPDYMs3c2CG4WyRnraQgC0w1sIlOJY/vdG6MK30daIJkCZpajUfCZ9VQQDuMtHC59A4l9lI64XgpEzT/o8RMEWQUx1K3CXyxrc+vfk4IxZRXOeZgI5Yz1ZAR5/LpfPcZ91WTjwbd5iLTHJWmfYUjqHwRdtadPEyUI8mA/li2vEv7irb4aK159Bgpu8DABmdjVyv3ogkRBeviNBsF4bQ/yhtnerpKKOnI2yoU+xeKQM5axWoconiBB2X+AIIbvkP8MC5XYTmVnHZYl8LbfSWxvcp3/8XQ+EeRwAe+zQzFBWrYifWA+vvN0IQ8OQzeY+2RBnYo1V4RvriRBTBdLkCT1Ky+y1q6vWopX+trSGqkFIiZizRnx6kjOWIZv3kSYfTPt8SeHv1uQh7swy4+BYoAOru/xHJjRsH06gm2xyQPP3PGb4DT4GAO+fSuc921JAOZWeugpEWSq30CSjTxdiRFHF0ZbZWMCZqPCde3PIUkQ51RseUklXPRZMd3HtePlWDonHqG2YozxwaCMEhy+43GI2JEzVvPWaU7b8erUNbCtOnuK4fg/Hn9TqyYFp6c5xsIjMhUNeryhpYx5B0fFzDTfQdlfeasyLzVeLr3m/h7IgkUQbwb+40pxQfAWPMI3b1lWUiwisiuFXxcQui1IR/1xrJlG5i1758hBjE/MKUbJ2lKsXr4Ei3T5yJ0zA2kTxiA21PGxDqMOxcgZi/Bp1RU88Dw87MgZq+3yXixMdP6qnVEPQe62s2jukSRm3K8rR358ADfSWYSNW4L9NzylERMurkmFDxE69eOLwg/bgqkFtVtzMZT3FtmS7dRDcvDFT83uf2cVhJzDBiJhQQUuOK2ZSR9r9EjxZ6EemIMvb3q+0C4EMaPl64VIio1EEOkY/ya6H+R3pQ/8tREYEBOH+NQpyF6oR1lFFc7Wd+f/g8gca68Oic+Foxfv21Wng1HAL2wQ4pKysflS11nI8p7l53UZiOsXBA3r3iaj8kfEkGQUHxLY82najbnPZ6HiroDRxioUpzyPAVpfe1Hp1rbCF32iRyC9lPf/Yogg08IHIzk1HjFhvRA4MAXpuToUL3kXC7JS0M83BPFvlAlsvzsjaYqh/B9Bpt3f7trmKxPam2/gfM0h7KvYicqqM7jSZCDDpGuoIBRRqCAUUaggFFGoIBRRqCAUUaggFFGoIBRRqCAUUaggFFGoIBRRqCAUUaggFFGoIBRRqCAUEYD/Auw/gItzaDroAAAAAElFTkSuQmCC;" parent="1" vertex="1">
          <mxGeometry x="410" y="1093.12" width="31.08" height="11.88" as="geometry" />
        </mxCell>
        <mxCell id="6XgkzS5plgYIXplXgI7b-50" value="" style="shape=image;verticalLabelPosition=bottom;labelBackgroundColor=default;verticalAlign=top;aspect=fixed;imageAspect=0;image=data:image/png,iVBORw0KGgoAAAANSUhEUgAAAI4AAAAuCAYAAAD+4SHmAAAAAXNSR0IArs4c6QAAAARnQU1BAACxjwv8YQUAAAAJcEhZcwAAFiUAABYlAUlSJPAAAA8OSURBVHhe7ZsLTFTHGsc3JyebDZuFgBGIAkYERUUFUUHagojCrajXilpAUdSq2F6sFnygVeQiWkSrSOXWFl+IUqVX6EVx8VFf+ECrVqhvRcSI1ABGNks2m03+d3b3sHuWPftktTbZfzIJ7Nkzc87Mb775vm9mebDLLitkB8cuq2QHxy6r9G7BeVOPGvER7M7LxvqsrfhPURlO3WyElLls199H7wicdtwrz0Z86Ej8Y94KbMjdjMy0zzA1xBMCuieGf7oOxdeaoWC+bdf7r3cAjhwPiuYgYPRiHLj9hvmMkfQRflk9Hr1pHmj3SGSda2Uu2PW+6+2D01KG5IHBSD/7mvmgi+T38N2knqB4FEQf/BtXOpjP7Xqv9dbBkRxPgQ+xKFSP0fj6NBc8CjzfPR3OFA88wShkXLaT83fQWwen/ehC1VLEo0SYVPCE04+RipfBj6/8jjvm/9zOfGrX+yzT4HQ04/4VMQ4XbsOmTd+iYO9hVF6tx2s2AdLrKM4rw1058z9b0rs4unEZlq4/gGst3O5va8kcuCktDn8w0k7ZY6y/g4yAI8HD4zlIDOoJmkcGlV0oGi79wzBt8VrkFf2EH9Oi4OGWhMNdfF/z9Aplyb6qNviDl+JEG/OxVVKg+WgaIgJ84CYSgM/nGywCgRAu7n3Q3384QsLGI2b6fKRl78QhcQ2etHHNAH1JT/8bMaHD4OvuCAFHG6p2HFzgOTAIYQk7cE0mx8P9yYgI8oOHs4P+PcJArDhtVSdq1HE9G+FO+u8uEDihl98ozNheA1s4A9zgKJ6jMj0cbqolxhED/5mOH49Vo7b+BZ4/+h3nSvOxcnoAeiitRCdMwhh899jygFpWtx0TXCjwaC/E731MYjDbSFp/Btvj/cDvfD5loT0RGvcF0rNzsSUnG5nr0rF0YTwmhg+Fh4g8A/M9ymkAopM348hvLyFj6jMqST3OFczBEIG2Dh5x9l0+Woria02cdciaalCUEqr27TT30OidUIRnVuclWnE8ZaDuO5PncAiYi+8vNpr3LmaKAxw5Hu+Nh5cSGh4f/ZMO4gnnaL7BHyVf4gNXWv2AghFYW20hy2+uIifKFRTlgtDlx9FodYdxq+N8OgIE2k4UhKw3GLV1NN3CsR9WY0ZADxLhqb9P8d0wIikPF1+a8WCy29g81kHTFo9yxaziP5mL3FK82I3pTmzYSJuiMdh0w7ohVjTsQZy7bn08nhDR2+/ZbEJ2Sh+cjgtYPVygfglhNLbfM9akAk3iVQh1VloMDywss8CxJVbt2FcjISL3jV9TgXpbTgdG8rotGCfUdqJw/Bb8YaoH2++jLD0SvVQTR1mI5Qiah101LSYSlG04EO+oaYvHH4ZVZ034a1Ixlg7ga+9RFT4GphwjtsNSyXDzmwiIKCd4ebHcCzIpEw8ZSIV0Q3rgyH7LxocO6kZpz2SUS5gLBiXF9ZxxcCFR05Rdz0x0LiMCjXhNBNydAzGv8Abp8rcjxePvMFHUOSBmgqOU4hWqt02FD2vpoftOw/e1xkBox0+znTXWSmmBv75owgJLTyFtMPFBfAZhgFDbFuU6FbseWWgjXlfhK39S14BFWJc8SLtckeV5kelBtFh64Ej+9zn6MLONEk3CTnP8lpZyLPYVITTrmul1VNGI46vC4e49ERuqGm1uQtlSPN5pHTgqvcal7LEsP46C80cZOGeQcgLOHBcLwTmtAkc4bi02z+7DshIOCMm4ZMEengKNRbPgQQvxYVY1TqT9FeD8slgDjvIFhqeeQLNJdiQ4meoP338dI38ZkbwBFcs/gnfI5zhQ13VZa0dVxkxsPG+7cLx74BBJa5Ad7qiFgeqBmB13DMDeDXDIc904uxojWP4Y3W8BSk13vFryWmyNcgTtNh2FT9px6q8AR16bi0hmqVIWSuCPpH21pFuMS1KzH1n7rhqeJfJ6lKeGITA2F+e4nE3ZdWRHRGNLne1sULfBIfrz5wXw1vg7xlIG3QPnD+l97Jysdcx5lDMm5BmCVFftv64kQQAffirfSGoFOApImu6j5nQFfhFXo67xtcl29Z1j2S3kjBVpX4AUit8XMVliPLPWgZU9wdEvR6N/5HLsrhBDLNaWyooyHDm4H4W5SRjedxEs8a9NyRbg4A1xYAeyHFjaG8nlXOR0ExzyXK/Kk+GrzKAzdQgCV+JXU/2haEJJkhdoYRiyryvbswyc138cxYb4QLj1GY3YBV8idck8TAvzQ2/vEYieOgEhcQXg8lb0wSH0NVcuQ6BDl7COLFveUV9hz1ULjz/IHqE0ZVSXfAV3cRibi1obRlc2AYe47j8v8GQlQQUISD/PkUTrPjjoqEHWB0JtHSTinHWg0Wh/y+/m4WNnGu4zduOp6ovmgyO9mY8pXnw4BqfheCOrY+RNuJD7icrSCsdvxR2OPuMAR6l23N6dhCEsT7+zUML+iFlVjBsGtg+6SrVXZQY0Suez92f/RffyprqyDThy3NkaBSHrWUWxhWjSe30bgEMQqS+cDneWQy4am4NbBieTBBfWjICAPwhLKjutoJngKJ5hf3wv0CRcj9v3kvmQJfkD/DjdA8KwjeBKKxkAR6kO3D+8DGG9aW1naAoFx0GfYN2R2rcWSttCtgGHrFYliToW0yF8E8dg2gIcorYTWEo+62yLp4TiuIGsTnMpFnjTEJHn0Q6umeC0HUaSKzEMVE8kHuKuX3IyDcNCMziTpkbAUUv6pArfzh0FV5aDqCmE1mEz83DxT4sWr3cmW4EjIb6HJ+v9BaMzcfVtgQMZbm2OhCPL6rhN+xFP9LpYjgcFk9GD7oW4vQ2s5cw8cBTPdmGKqm9o9J62C/e5rJrkFFZMWYNz1oCjlgQPKjYifhirYzSFrK8R6ah4G6nfbspW4LSXzoMry+III3OhH/zZChzy3M+LkejJbOWQQjmMxvorXeJV6WVkBAtIlLcMYp3EsJkWR3ICX3ZmrYkBCJqbj/ONXcdQjj8bnoEr72wmOIzabuOn1RPRX8/3oeAUtATltt5s6qZsA44CLwpjIWK9q8vMYrQwV7WyHTjKun5dGQiBpk0aPgv/i2bmqlKvyheTCEyEiJybXZKu5jrHHbiZOx4uLMsm8ByDzwvO4pmJx1bKMnBUkuPlpe8xP4iVXlcVPnw/O4LnNmVHhtuF/8KM2FjEGilxX5dxtmsbcDpw8esg1iA64KPsGxwZcluCQ3qZREsTlHuATH2Uy0Tkd+4bKh7jh6muoHsnYL/eVrq54BC138SuhIFwYFlTHsWHR9gi5J95avT4hRXgqCVvqET6GFcdeChRJHJv23LJ6sCF1eyZx12EMfng2tqxCTjyh9gxgZXX4g/DSs7NS9uCA0UzShf000kDDE8/R1ohvXJtAz504MM/tYpjGbEAHKUkd1CSOhaefN1VhOJ7YmxqMX43EP3ogNNWvQdbj941vd/ESPagCIm+rAiAEmFyQb1leR6jkqF231dITEhAgpEyJ/MXvHhLFkf+cCcma2Y+BYfgDFzi5MHG4BBJL2UgmJVPoz1n42BjC46l+IHvSCbp71wjZSE4KnWg/uRWJI0kVqzzPlUhjnN0Ns5zBD864CijB29/S07hdeDK+hCWRRAgOOOKURP3LtV9cNpRvS5Ea8rpvphz0NAJANuDA/kj7CJLkqZOyhERK9dimjtZTmYVGTi/ZA04jKRPcDJvMcZ4CbRtEhdk8NITesc8dMCR3foGY4SumJR/x2yr03YokeVgCRH97V2T+xzvSt0FR3JjC/6hzHWo7idOcdQW3DTIgjXgqI9VCMdxRWlqtVakqA/yM/VSFEWWkaFIO2UoVWomOK3HsHGTmDMPJ2s4hZxPfMFnxpVym41Dr5iLjHR9nNZDmN2TAt0vEUXcx/701HogQZsc4w9GapUNN5u6KavP4xBJHxxByqjOnXEScfjNQdE9YyAQcCw9jyOpxBJfGg4GsrMqyW5gYzhrG4I8iyN5D8OupBQnU1nHRw2B07wXcUOWoNLQcLWeRFqg+kAfTxiNbV1+iaALTkc11o5UfpmGV2wBbpu0cG2oSBnAPCQFYfA6XLTdqYhuS16Xi0hLTwASe9kgzsKkfp3mmvg1PlOw7bKp9bsNBxIsPAHYdgiJLhT4g9Jg+McdCjzbn6D+iZGyXgLC7OLnRvxICSq+8Gad7XHD/FIOOgg4M1yGEMtliBwpziz3V40t5TYHJV3yD7rgKF6gMJaZZZQQ/rMLcOml4Z5uuZCJCOVBc2XloiCkVr5fv/+WnlmOIezd5lGGHFsieQsenC1C1tww9Ol0SCknDI3PxcmnZizc8jrkRgo1bSlT+TMPGD9zLDm7Sn0mWkgcXWPHSd6QJW2oOggRBKzAGWNGXfEUBf9kn24Q4uO8B/rugxIcRwquMXkGNpbf4H9fKKM6Gj4LSqFzEoa0oQuOysyx1kflbOsXjdQfqnDraSvj9yjPbtxCec5sjHBVZzcp50DM31dH7n5/1NFwFts+Jeu05l1IIbN1zMIM5G7Pw9ZNmVidtgSL5s7EtMnjENRHe2CLEvbBhzNX43vxXbSaMxNkL/Hb/mQE6SRGKfQIT8OR319xTCYFWm4UYUmYG2MZaPSNycSxR4Z6UI66bdFwIiBHf1tn2IeUN6Nm7yKMYP1iQ7USDF+IPdde6t6nAodcp90RvqwEtTpxPXm+6mxEkfEVDlmInx53abHjSldw5Hi442M49f8EmbuL8cPmdCyaFob+LjRxymg4egzAoH49NVEGRffEsKkrsOfK+2JpFGguW47IID/0Ip2nnXVchVwXOMHV0weDAoIRFj0dC5Zno6BEjOsN5u3RS09vwOTwURja1wW0JkDQLZSgJ/oNC8HYWfm4LpPhtx3xCB7QCyKaPbjMdx1c4TN8PDKq9AFSNB3G/JFJKOHKO0jFyIgaiUGezhqHVq9uvjO8/EMRl8f8roqA86l3IMZHhyGgbw+4D4lC3KI0ZGSuwbKkKAxw9kDY4gKObQilJF3BUUZWR5BfrhtVKV4/xuWKQygs2IZvMjOwPjsX+XvLcfFhi2H67Xq/RZbm5y861zw52l8+wq3qKpSXHESp+DLuNkmMGgM9cOyyyxzZwbHLKtnBscsq2cGxyyrZwbHLKtnBscsq2cGxyyrZwbHLKtnBscsq2cGxywoB/wcSwHCcBk4jzwAAAABJRU5ErkJggg==;" parent="1" vertex="1">
          <mxGeometry x="509.57" y="1094.06" width="30.87" height="10" as="geometry" />
        </mxCell>
        <mxCell id="NkOorz8JqPaO5wIUPcjg-1" value="" style="shape=image;verticalLabelPosition=bottom;labelBackgroundColor=default;verticalAlign=top;aspect=fixed;imageAspect=0;image=data:image/png,iVBORw0KGgoAAAANSUhEUgAAAEAAAAAoCAYAAABOzvzpAAAAAXNSR0IArs4c6QAAAARnQU1BAACxjwv8YQUAAAAJcEhZcwAAFiUAABYlAUlSJPAAAAZsSURBVGhD7ZgPTFVVHMfZ3dvb23t7uGQGwz9NUxLBFNNSiqioyKWiGJrTsZdLUQorSxDFkWtUCqnYtFTSJBWefwjxHxSQiGmi+AdUpNQEhyiLHLD3xt7u9uny3n1/gPfQkhr5+G5nZ7vnd84953PP73d+53rg5uoFINduq14Acu226gUg1w+hmqktP0LmmkRi3t/CuVb5cQc9VADExiqKstaTHBtF6PB+KAUPPDw8UD21nFKjbNRBDxWA1soc1qamkbpyIa88pkSQFu9WAOwyUZEahsZ9AcDdnXN4xN1cwFHNeh39egH0AugmAGIjVSU/U20bxEjd+UJy9XspOF8vhZwuZKjjwtFD5GTvRJ+bz/HLd3BxJHeWaKDhWgUnC/PQ78om52Ax5TXNcmPX6gYArdy+cIjNyfOYGCidqZ4z2HZbetxcwfbYYHwVgnlwQR1AbE4doqWTTaabpWQkRBLkrbIdR+YieDI0LIb0H69LGF2o5Ro/ZSxn9oSBeAeGMzsmjnfems6zQzQIKm+CZq4kt6pFNnauBwDQxJnvlhEd5meLoubSBqCuikzdCNSOzz0UDHn3IPbpiDSUriXK34thk5azvbCcq3cauVVdRt5aHWO9ZHCaQHTbKjHIvWxqPE7alMFSEqMkYO4OqhwMTDfzSQjWSkAFtEGL2H+zI3a7HgBAC1fLjnHq9DG2xYxCZV2oNoLE5AheeHsjxRVl7Pk4En+ttBihL6+tq7S5gaFyC28OVeIV/gXnOr3UxJWvpuItT0zwepXUckejFo4ljbMAVjxGbF7HryxSnznb0l9QE5JyxqU7dUsMMBQn8KTSMkjbCwfP3MRl2xtNkosUkHu4nFvW1Zt+ZVOkt7RNRxNf1CQ/7KCGLHS+ll3QtnuGLczlD7kJ4y+snKCS27RM21zbybWMpUmMVVnmpJ28gWsuNkG3AGgtTyFEbRnEQzWe5BMuRpHVXLiEURIwpf9iCly5qARp/USNvEjJ1m8Rh61xTbzGNzN8UUjPBeUIPsi/KzfYZTyZzDMyANW4FRx3MaXuAXD2M0KtAKQYsLUtCLqUgaL4kSglW8Wg54iKjibaaZnDayM97YFR8zKplfZzxHTrBLvSv+DrQ5ekaNRZjgCUI+Mp6hRELPpXAJhPAVdqPUNKiNrywtFRfBgfT/z9lKUp6C/e+2A01pWxOzWOyaN9bEFYGfARhT0GQJMe3aMW39ZGbqGLAP03ZKT2ZDarYicxfkIEcam7OXE4yb4DehIAsS6D6VqLrTokhfL7znacycjvxRuIm+hPv4GhvLOplDp5vHYu0KN2QMO3zPS02Ao+OrJtof1vynCFvfFhDFAK9AuJJ/dq+5n3XAAt3zO/v8JiqxhK7P4/5YZ7yURjQ6MljxBvsHfBSLOPC55hrO6cSPRgAKaLpL1sPd4U+M7IcHlGO6rldBpTJn/OWWmLG0oSGSMvTv3Sai44caOeC0A6BksSg+yZo3IYc7NvdEpkHCXeLiIp1J85mW12rZR9Eoxa7u8qyTEeX2FLhP4DAJ/yvA1AFFvr5QYXai2XgGmsWZ6UD/i8yNK8607TVcOvOSx53gefSeupMBsYKFg83JxHmPsOnou+viMBI1c2TuNReWFKv/c40gUALyuAMf8QgGPa6aEJZ11Vlxdf6ZPe4cjioHaXJUHpy9OzEliTsYvcA/vRb9/Ip3FTCOwrSAuIJrPaisdE1bpwNNa+goagmJ1cMmeJIk2/FbFl6VSeCvCjv0Ie2/N1vqyW5iTWc/rUFQfQIrWbp6GV56AYtogjLjJT1wBaa8lPCHaYkJbgxB+ovwcDGk+SHvm47Ze08yLQd8xcMs62z/XE2j3Mf0LZzk7t7UeAnw8aCWRI3DZO1+xl3gA52ErtfYaMZszwIUxIKrbfLJvOkx7hY06p2+wE9TiWFv7h1B07AzBdZ9+yNwj1t/9XtxXpiuobFM4M3RIyzzvb2LKaqzmwSsdzg9quro5jCKgGhTJ/zWGqnf7XEKkrTmPWqEfs/QQFXoHTWLHvMpYuf1K4bLztqi4oBhKenE+N9GFMl7NIjJ5KiF+fDu+V7LQSpIjZLEg/iuMNo0sXeGAZ66ksOci+XZnszCngxMUa7t5rB0kSm2o4d3Q/WTv05JVcoqFjH7GByh/3kLWngDM3mpx+2fvVvwvgf6BeAHLttuoFINduq14Acu2mgr8ApVhnDkmzet8AAAAASUVORK5CYII=;shadow=1;" vertex="1" parent="1">
          <mxGeometry x="363" y="1110" width="23.3" height="14.56" as="geometry" />
        </mxCell>
        <mxCell id="NkOorz8JqPaO5wIUPcjg-2" value="" style="endArrow=none;html=1;rounded=0;dashed=1;" edge="1" parent="1">
          <mxGeometry width="50" height="50" relative="1" as="geometry">
            <mxPoint x="360" y="1110" as="sourcePoint" />
            <mxPoint x="390" y="1110" as="targetPoint" />
          </mxGeometry>
        </mxCell>
        <mxCell id="NkOorz8JqPaO5wIUPcjg-3" value="" style="endArrow=none;html=1;rounded=0;fillColor=#0050ef;strokeColor=#001DBC;dashed=1;" edge="1" parent="1">
          <mxGeometry width="50" height="50" relative="1" as="geometry">
            <mxPoint x="410" y="1110" as="sourcePoint" />
            <mxPoint x="440" y="1110" as="targetPoint" />
          </mxGeometry>
        </mxCell>
        <mxCell id="NkOorz8JqPaO5wIUPcjg-4" value="" style="endArrow=none;html=1;rounded=0;fillColor=#e51400;strokeColor=#B20000;dashed=1;" edge="1" parent="1">
          <mxGeometry width="50" height="50" relative="1" as="geometry">
            <mxPoint x="460" y="1110" as="sourcePoint" />
            <mxPoint x="490" y="1110" as="targetPoint" />
          </mxGeometry>
        </mxCell>
        <mxCell id="NkOorz8JqPaO5wIUPcjg-6" value="" style="shape=image;verticalLabelPosition=bottom;labelBackgroundColor=default;verticalAlign=top;aspect=fixed;imageAspect=0;image=data:image/png,iVBORw0KGgoAAAANSUhEUgAAAGMAAAAiCAYAAABLP2dcAAAAAXNSR0IArs4c6QAAAARnQU1BAACxjwv8YQUAAAAJcEhZcwAAFiUAABYlAUlSJPAAAAhPSURBVGhD7Zl9TFRXGsYnN5PJZCYDsQQ1FDEiZVRW/GCpFZEuVsGPqrhSZLTr+lHASim2UllsC1XExSLI2FbclqJSk/pVlY+6oIhVWiiy2i0WRLCgkCIYPuIYyORmkmfPMOfCcLmwA8xN5o95kvMHzJnnnDm/97znPfdKYJfNyA7DhmSHYUOyw7Ah2WHYkOwwbEgEBov6c0mIiohAxHAtMgo7Y+OQkJiM1PRjOJVXhtq2XmoxksTyNqCl4CB2CPmZtah9Z/F9TrzA+JHYmVaEJwZqZ7EMaLqULDhuVMJp/Kan3cYo085gdWh9UI4LKeuhlkkgkRgbA9mUBfjrthi8FxOJzWFrEOTvg5mujpAyEjAyJ3gGaJDwZQkadH0uwhLNuxddzbUo+zYJaz1k1Jc06TSs+vA0btY0o9PIlIzf9rAKBdqt8HFg+vsxjkFIrx7l6vXexgF/BRhuLPI7nANikVP6G5q7x0mCaHCa6r2FvfPldCAFAg/9F0OGYDtwv+QkkjTz4EwWzjghB8/V+DivgSzPCBLNuxc3E+ZCThdINvsDXO+hH5nL8AjHQ1R0fGOTYfbuYnTTjy1RZ2EMZvQHFGnSqYi82Ek/Hb8Gw2DvIW2pkg6mxMqj9STRDCcdqk9FYJ6jKdoYuQfWppYOv/VF82ZRk74Myj5fCZSvpaFa0FiHC9sng2EY0kx9pS7hONFkYa4yNCFnw2Qo5/jAW276vkT+MhJ/siRdWyYejDpkBlu6YEbp0Xg5Fr4quv1l06H5ulY4ikXzJufS0ZUDMIIzUSdo/Bx5b7tB5ReC1e5SkyejxOKUqpF3NJX+bioCVROxLjMN4Q6msSSKRThwe/zpidM4YRjViZJ/+ELZH21hyP5dINpE8x4ljOA0XEjyg4J6yjx3Iu8p7TKsulH8/p+gUO/E5cZcaGwXBlH7Jex4iTtE5fDZe4v8dJ5E8x4tjEzUNmTjjUl0xzHOCDk28lwMzbl401WJRcmV6O0cDQwWz1pqUFFShJLK+2jVmQLJYBBOjdaBQX7o1TgvyOiCyOd/iDL+3hfNe/Qw6tguXImdNeDp+xHKhkQPJxb30oPgOGk9vjLuSgthsI9LkLHNH95/2YKE1Ayk7duFUF8PePn5Ye7mHDyh/cxlJRhA1/nteFFKJ6lcirR7vG+K5j0WGOQM+OUQlnDnESmHt55tJbcIAelKET9XCfU7+egw/m0JjN5qfBHiCpX/Jyh/Rv9HZGi/jr1+KqjWZkGobrAaDP2dFCxW0EnKZuL9Yl59KZr32GCQ3INv3nSFtO97DByDM8CPH9IJrWe2YKrKnyw63Y4WwHheFEvuVDJ4xV0Dv8p+WhCDOau0eCAwR6vBMDz8HK+r6CSZidh6jndbE817jDCIdKXxmMuVqTJvxF3l3TrYWmhXvoBJb2SjkYvk/wvDgOYv10FlvCO99k9U8S+tumLE//0wqgU2lNVgsA+0WK6kk5ROwY7LvCQsmvfYYYCtgXbFBHqjluJFzUk8MksfPWUf4c/KGYgpNLvYWbAznuVHY7oxrTIKqDdk4Idm8z56tDT8DrPs1S+rwej9KQkvc1FGJpnMn6Ro3uOAQaL4yfm34E7PI0YZgJQqrjpox3eR0+EQkIL+fxll0ZnxHxxaykFmIHcLRPSxG3jML2p4shqMtlwNnLj7gPvbyOOjF817PDCIen5E4gLueZMM6ui8voOarT+GEOfJCPu6afDBbgkMIn3DBexa6DTwHIuRwXVxFD7/oWXY320lGB24GOVOD0Mp3KMumioPc4nmPU4Y5PsNx9dhIoXNOIcgq16Hik8WQjXrXVzpot04WQjDKEPHHXyzZzmmK2jVZvQnaS/0SNnQ9SGyCgy24SuEupgeMTAOryLltsCTOtG8xwuDqCMf76gHLpa+u1MQ6emIVw/eGfowcxQwTGLRWnECe16fAQcKXCJ7CW+d+2NIKT1+GGw9Tm6kkcvIMfvdApJtBSSat+UwLkWR2j8oAzVDPu9FVUpA/2MXhpGaHiKan+acLIDxtFCLrEreAWFow6309fCUG3cJKaVDs9HCs+fBqMWR0SyYvhFXEoPh2ncAkmpkxaco529rTqJ5s3igXW4G4whqBY27cXqTIxQL9+FngWA2PDoJDd2BxrPDa9e/IThcWw7C+mH4YX8l34zcTbLDsUxoV5E5XI3z7rv5KwI/xa+8DoNh6Cux309BJ6REcOb9YRbsOR6Xn8H+0JmmaGImYM7GDNz4QyCSOInmrcftA4ug6POVQL4gCRVCVQvZmdrlSlIARCNf8IVVN4rjZvctFKMKROpdAWJEbJ1ZmS3zQtw1fto0wgiF0yuJKBsyjgGP/xVC7iBSeETnD3mXMghG993DWPECd9iQaFy5F7nf30T5j6UounwOp3OyoE2ORdhCN7pQSkxb/Dck5laifQQORonmrauGdrVzf9XCOC7DwZ+7ePlYj6Yre+BvfNMndUd41i+CUa+vTkeQoxQuvPvGgJ7h18/WwYV7NENSp09cMdoG9TXBUDFOWPLxNTSbRxz7ECc0UyH32IRTAldwAoPk3LMJ2LjGH570Zc7QxoCROWDiFA/MmueH4LAoxKcex/myh4KXlwGJ5W1AS2EKtmtCEKDm6vmBxiin4ZVVG7Al6Vt891kEQpZ4w6UvV9M+ZKFmBKzB5sM3MCh4Da04sz0Qu4v4N/E6nEnYhLUBakyg58qAlwJuvisQvjuXvgM3wtBAPd8fvmo3eAVtwwcHjuBoxn7ErPbGzGXvIaeynRcsJg1OU3ZZRWxnOzpoluvpaMS9iusoLLiGyro29Iywy+0wbEh2GDYkOwwbkh2GDckOw4Zkh2EzAv4HDe7/jMUpFlQAAAAASUVORK5CYII=;" vertex="1" parent="1">
          <mxGeometry x="460.88" y="1113.62" width="29.12" height="10" as="geometry" />
        </mxCell>
        <mxCell id="NkOorz8JqPaO5wIUPcjg-7" value="" style="shape=image;verticalLabelPosition=bottom;labelBackgroundColor=default;verticalAlign=top;aspect=fixed;imageAspect=0;image=data:image/png,iVBORw0KGgoAAAANSUhEUgAAAIgAAAA0CAYAAABRsnBcAAAAAXNSR0IArs4c6QAAAARnQU1BAACxjwv8YQUAAAAJcEhZcwAAFiUAABYlAUlSJPAAAAt9SURBVHhe7Zt9TBRnHsfJZLLZ7GYhYAQCrASkFQUtihVrLaAIXNV6VlHBF8RawLYH1WMth22lxq5W0SpasbZalVOp0rNeqxXF14q21KI93+q7QCMgUYlslpDNJt97dp3dnd2dHRhax7vm+STzjzs8v2dmPs/v+T3PjF6gUESgglBEoYJQRKGCUEShglBEoYJQRKGCUEShglBEoYJQRKGCUEShglBEoYJQROlCEDNa9uowKiYCARolFAqFx0OpVMMvMBTPRg/B8PhkjJsyFzr9BuyqqsWthyauPTHkjlWA+CgtfFVdxFL7IjD0WQyMfREpk1/HwmUbsfvENbSZuabsmHB9+zyMio1EiK8KSte21IPxzpFH3Lk9o+OsHgk+7v1VKn0QFDkMU9fWooM794+i2xnEePso1mZEQuHlBS/bwWoxIv0tFOlLsGqFHksWF2F+TgbGJwxCiIaxn8f49EPqvJXY83MzOrn2xJAvlhmt579EQUIvMLxYbPBIzC7S46MP34MuLweZUycgMToASoY7h1EhdGQmiivO4yHXEp/OplqU542Ar+1868EieHo5GtzE6i4PcCCvv/M98WKgipmDT081duu+9gRJU0zHySLEKB0dVA7/AD94ULaj6Tz2f7YIU2McN59RBGBoVilONXd9l+SM1bI9g/cwGfTO2g33sf4IN49sRN5oLVjbuWwg4hfsxq8C/TLf3YIpPg5xrX3SJGJ5Xc8epbn+C6QHOrfn5aVG6tpfSe56ckgSxHRxFcaoHR1UJ6/Cpa56134VXxclIYi1/R0Dv9jXsKn2Phm/npEzluFAHvry/iY4Zy/aud/ceHAGK18OBMv1y4vphaTlP8LA/WzHWIX5/RRcm7ZDgf55+0kukEonzn00ChrGB3369ObF9sOsXW3cOU8GSYKYb36C8RrHBXfroVkwt6JmzSREKB0jgA1Lw6cXjNwJ7sgZy3h0IaIVtlhdCEIw/rgEI1SOvrHa2djV5KKgsRq6KFIjRAxAPzVvCvSfhE03JI75tkP4ezRpq18uFs8b4JhmyLSbu89NzT8UiYJs6NlDs9KG0/rR6MVL5b4vFeOE0CROkDOWRZCBEgRBxxkUxym588lBHlTOXpeRbDxiFUQ95n2szAzljXoVhhefhmddXTGjsXwmQlg1Ri6twUHdn1YQgrEW+gRvR0FI0vO4dZcF51A5Y0kWBM3YkuZt75ulFhi77rpz2zZBSL/rji/CUF49xfbNRmVL17WRFdMFrE7xBhswBZtvtaP6Ty0I4d5X2Qi3z/deUETNx0GBkS1nLOmCtGLbNL4gGkwou+1c5/AEuWS8ig0TeCslxhdjS4VldaX9WCEp1hWItNYuxh4KYoah6Spqj3yLf1fV4GJjW7cLW9kFwSNSvPXnFW9sOObtc39qcsaSLEhnHfQvqRztKgZAV+0yafAFIf1u3TcPz9hjkFXZ4EIcE7eQ3IQmVGT1AauOh/6sZakkXZC2S3vxYcZgBIS+gMnZb6Mg/zWkxUciOHwoUieNxfD0MtwUSWbyC4KH+CqbLBVtF+mlREzRSbcNHjljSRWkk6ywknl7L8phi1HjWlS4CIKOWix9Ue3IImwIZv6zUXwld6UUL/uyCJy6BXesJ0oTxHhuPSb2UcA7TocDjbybZ2rC9yWvWrOrOnk1Lovc16cgiAmXV6dAbbtIcmgmb4brIkDOWJIE6byKbTMiHA9JEYFZ5TfdU7arIESF25unIJBXOGtGr8B5j9siBnz/7lAoSXbK/86W9SQIYm7A9owgsGQpnL6tmftHHqZr+HxKCNTxyyC2NfMUBCGZv2KW0y6jKmG5242SM1Z3BTHcOoSPZ8bAx9YeKXxHFlVBcC/OTRDCw4OYT/7N1hfL1JR/wMOuSEslssNZaEh/HQ9QgiAPdyPLn2Q5pjdm7RKOYTisw3Mjij1uQFp4KoIYyHys5RWPyheW4McnJEh3YrkK4vPi69CXrMUnG8tQuqIYhXnZmPHKcITZpxUGKm0C/rblJ9z3NEcICYJOnF+ZBG9eFglI+xy33Now4VrZBPRig5C+tZ43DXVfEHPDJky03j8WwWmbcNXlmq0YqvHOxHdx4n9NkPbK1+DPG9XqpBJcdGlHzljOgggcjAKa3lpERA1DamYhSvfU4HZXBaagIOS6ftuBWVrW3jajegEf/OBa4D7eZ1FELUCV0/aKhAxiOIi3bTu5ZJqJnbMeJxtdLTHhXn0DxPZin4IgZtzdPBka20WSUeQ3Ywfuc7/akDOWawYJmrsbTfea0HD7Oq7fakRrew/M9CAIURbHCgdDae8Ti4icf6GF+9VC6743yIpHg1Erzrm8hJNSpHbgXEky/HjZSqlNxJtlx9EgkjFceQqCdODUe7G8G6TCS/o6t7eRcsaSVKR2F4+CkHFLVidjfXnb737jsf5X7iTzTXw2yR9s8HRsd3v1K0UQQvs5bJreHypeBrVkw5D4XKw/esdtNSeE/IKYrmPdWI1juad4DoXH3Tee5YwltyAwt6Ayu6/T8ntI0QlrzI6fPsRIlQLRBYcEUr9EQSwYLqOiYDS0CoeQloNRaDG6YAd+Edg45CO7IKbrGzDBPnpIsRdXjNMCKssZS3ZBCMbTxYhTOR4aq83Ezsb72J8XCYV3Ekp+EaoqeyCIlQ7cPrwaWc+TzGT7W+tBCthUPU7e81Rpyy5IO2oWD3ekPDYMs3c2CG4WyRnraQgC0w1sIlOJY/vdG6MK30daIJkCZpajUfCZ9VQQDuMtHC59A4l9lI64XgpEzT/o8RMEWQUx1K3CXyxrc+vfk4IxZRXOeZgI5Yz1ZAR5/LpfPcZ91WTjwbd5iLTHJWmfYUjqHwRdtadPEyUI8mA/li2vEv7irb4aK159Bgpu8DABmdjVyv3ogkRBeviNBsF4bQ/yhtnerpKKOnI2yoU+xeKQM5axWoconiBB2X+AIIbvkP8MC5XYTmVnHZYl8LbfSWxvcp3/8XQ+EeRwAe+zQzFBWrYifWA+vvN0IQ8OQzeY+2RBnYo1V4RvriRBTBdLkCT1Ky+y1q6vWopX+trSGqkFIiZizRnx6kjOWIZv3kSYfTPt8SeHv1uQh7swy4+BYoAOru/xHJjRsH06gm2xyQPP3PGb4DT4GAO+fSuc921JAOZWeugpEWSq30CSjTxdiRFHF0ZbZWMCZqPCde3PIUkQ51RseUklXPRZMd3HtePlWDonHqG2YozxwaCMEhy+43GI2JEzVvPWaU7b8erUNbCtOnuK4fg/Hn9TqyYFp6c5xsIjMhUNeryhpYx5B0fFzDTfQdlfeasyLzVeLr3m/h7IgkUQbwb+40pxQfAWPMI3b1lWUiwisiuFXxcQui1IR/1xrJlG5i1758hBjE/MKUbJ2lKsXr4Ei3T5yJ0zA2kTxiA21PGxDqMOxcgZi/Bp1RU88Dw87MgZq+3yXixMdP6qnVEPQe62s2jukSRm3K8rR358ADfSWYSNW4L9NzylERMurkmFDxE69eOLwg/bgqkFtVtzMZT3FtmS7dRDcvDFT83uf2cVhJzDBiJhQQUuOK2ZSR9r9EjxZ6EemIMvb3q+0C4EMaPl64VIio1EEOkY/ya6H+R3pQ/8tREYEBOH+NQpyF6oR1lFFc7Wd+f/g8gca68Oic+Foxfv21Wng1HAL2wQ4pKysflS11nI8p7l53UZiOsXBA3r3iaj8kfEkGQUHxLY82najbnPZ6HiroDRxioUpzyPAVpfe1Hp1rbCF32iRyC9lPf/Yogg08IHIzk1HjFhvRA4MAXpuToUL3kXC7JS0M83BPFvlAlsvzsjaYqh/B9Bpt3f7trmKxPam2/gfM0h7KvYicqqM7jSZCDDpGuoIBRRqCAUUaggFFGoIBRRqCAUUaggFFGoIBRRqCAUUaggFFGoIBRRqCAUUaggFFGoIBRRqCAUEYD/Auw/gItzaDroAAAAAElFTkSuQmCC;" vertex="1" parent="1">
          <mxGeometry x="410" y="1113.12" width="31.08" height="11.88" as="geometry" />
        </mxCell>
      </root>
    </mxGraphModel>
  </diagram>
</mxfile>
